<?xml version="1.0" standalone="no"?>
<!DOCTYPE svg PUBLIC "-//W3C//DTD SVG 20010904//EN"
 "http://www.w3.org/TR/2001/REC-SVG-20010904/DTD/svg10.dtd">
<svg version="1.0" xmlns="http://www.w3.org/2000/svg"
 width="1920.000000pt" height="1080.000000pt" viewBox="0 0 1920.000000 1080.000000"
 preserveAspectRatio="xMidYMid meet">

<g transform="translate(0.000000,1080.000000) scale(0.100000,-0.100000)"
fill="#000000" stroke="none">
<path d="M0 6684 c0 -4042 0 -4116 19 -4103 10 8 59 44 107 80 336 255 874
506 1219 570 151 28 166 32 280 72 120 43 313 87 412 94 l72 6 -7 31 c-4 17
-7 65 -6 106 0 63 6 87 34 148 40 87 122 170 207 210 53 25 68 27 173 26 101
0 124 -4 189 -28 262 -99 490 -309 547 -505 11 -38 15 -80 12 -140 -5 -103
-41 -192 -108 -265 -38 -41 -145 -106 -176 -106 -7 0 8 -30 33 -67 25 -38 63
-104 85 -148 21 -44 60 -105 86 -135 61 -70 168 -211 207 -272 17 -26 33 -47
36 -48 4 0 28 51 54 112 60 143 81 184 117 230 22 29 32 59 48 142 11 58 24
115 30 125 16 30 51 51 85 51 27 0 36 9 80 76 52 79 84 104 134 104 32 0 86
-39 96 -70 6 -19 7 -19 28 0 13 12 35 20 58 20 66 0 119 -64 119 -146 0 -35 1
-36 18 -21 23 21 85 22 117 1 47 -31 58 -86 50 -251 -3 -81 -6 -174 -6 -205 6
-551 6 -525 -22 -698 -28 -168 -92 -469 -103 -479 -8 -8 4 58 28 152 16 62 17
81 7 93 -10 12 -9 13 5 8 11 -4 16 -1 16 14 0 11 3 35 6 53 l5 34 -15 -25
c-14 -23 -15 -23 -13 -3 2 11 8 28 15 36 7 8 9 23 5 32 -4 13 -3 16 5 11 14
-9 15 3 2 24 -8 13 -10 12 -10 -3 0 -10 -4 -16 -9 -12 -5 3 -13 0 -17 -6 -3
-6 0 -15 7 -20 8 -5 9 -9 4 -9 -6 0 -16 5 -22 11 -9 9 -14 5 -19 -17 -7 -28
-48 -110 -64 -128 -5 -5 -6 -14 -4 -21 3 -6 -2 -17 -10 -24 -8 -7 -12 -19 -9
-27 3 -8 0 -14 -6 -14 -6 0 -11 -6 -11 -14 0 -8 -7 -22 -16 -30 -8 -9 -13 -20
-9 -25 3 -6 -3 -15 -14 -21 -12 -6 -18 -16 -15 -25 4 -8 1 -15 -6 -15 -7 0
-10 -8 -7 -20 4 -16 0 -20 -18 -20 -20 0 -25 -7 -31 -36 -4 -19 -13 -38 -20
-41 -8 -3 -14 -11 -14 -19 0 -8 -4 -14 -9 -14 -5 0 -12 -11 -15 -24 -3 -14
-15 -28 -27 -31 -15 -5 -20 -13 -17 -30 4 -17 -2 -27 -18 -36 -22 -11 -22 -13
-6 -25 16 -12 16 -13 0 -19 -9 -4 -24 -18 -33 -32 -13 -19 -14 -27 -4 -39 9
-12 6 -14 -17 -15 -16 0 -23 -3 -17 -6 9 -3 10 -10 3 -22 -5 -10 -7 -21 -3
-24 3 -4 -2 -9 -11 -13 -9 -3 -16 -12 -16 -19 0 -7 -6 -16 -12 -18 -10 -4 -10
-6 0 -6 24 -2 1 -21 -25 -21 -21 0 -24 -4 -20 -21 4 -15 2 -19 -8 -15 -7 2
-31 0 -52 -6 -21 -6 -63 -14 -93 -19 -46 -7 -42 -7 25 -3 44 2 96 7 115 9 22
3 15 -1 -20 -11 -34 -9 -106 -16 -192 -17 -75 -1 -134 -4 -132 -6 2 -3 48 -8
102 -12 l97 -7 -120 1 c-97 2 -125 5 -145 20 l-25 17 35 -5 c19 -2 8 3 -25 13
-145 42 -193 89 -246 239 -39 112 -36 66 7 -106 27 -105 28 -119 9 -76 -23 49
-17 11 6 -42 30 -69 31 -76 36 -207 5 -113 -14 -326 -37 -413 l-8 -33 8024 0
8024 0 0 5400 0 5400 -9600 0 -9600 0 0 -4116z m10503 2845 c89 -24 156 -127
165 -251 l5 -68 -67 0 -66 0 0 43 c0 100 -38 156 -112 164 -120 14 -184 -91
-143 -232 18 -62 60 -110 231 -261 108 -97 146 -166 152 -280 6 -114 -15 -180
-76 -244 -57 -58 -104 -73 -212 -68 -91 4 -142 27 -187 87 -40 52 -55 105 -57
201 l-1 75 61 3 61 3 5 -78 c3 -46 12 -92 22 -111 22 -43 75 -66 134 -59 75 8
113 62 114 162 0 104 -28 144 -238 331 -106 95 -146 167 -152 275 -12 203 80
319 252 319 39 0 88 -5 109 -11z m-2133 -59 l0 -60 -170 0 -170 0 0 -215 0
-215 135 0 135 0 0 -65 0 -65 -135 0 -135 0 0 -255 0 -255 -70 0 -70 0 0 595
0 595 240 0 240 0 0 -60z m496 23 c4 -21 55 -288 113 -593 l106 -555 -63 -3
c-36 -2 -67 -1 -69 2 -3 2 -15 56 -27 118 l-21 113 -150 0 -150 0 -22 -115
c-12 -63 -22 -116 -22 -117 -1 -2 -28 -3 -61 -3 -45 0 -60 3 -60 14 0 8 50
273 110 589 61 316 110 577 110 580 0 4 45 7 100 7 l99 0 7 -37z m625 -382
l134 -420 3 420 2 419 60 0 60 0 0 -595 0 -596 -72 3 -72 3 -148 465 -147 465
-1 -467 0 -468 -65 0 -65 0 0 595 0 595 88 0 89 0 134 -419z m529 -176 l0
-595 -70 0 -70 0 0 595 0 595 70 0 70 0 0 -595z m892 108 c3 -449 4 -491 21
-525 21 -41 67 -68 117 -68 50 0 96 27 117 68 17 34 18 76 21 525 l3 487 60 0
60 0 -3 -512 -3 -513 -30 -54 c-49 -89 -116 -124 -236 -123 -82 0 -141 24
-187 76 -69 79 -67 57 -70 619 l-3 507 65 0 65 0 3 -487z m-4127 -1093 c31
-62 35 -78 35 -150 0 -63 -3 -80 -14 -80 -11 0 -16 14 -18 48 l-3 47 -47 3
-48 3 0 -50 c0 -39 -4 -51 -15 -51 -12 0 -15 16 -15 80 0 72 4 88 35 150 19
39 40 70 45 70 5 0 26 -31 45 -70z m444 44 c40 -34 42 -77 4 -116 -20 -21 -36
-28 -65 -28 l-38 0 0 -65 c0 -58 -2 -65 -20 -65 -19 0 -20 7 -20 143 0 79 3
147 7 150 3 4 28 7 54 7 36 0 55 -6 78 -26z m1491 -109 c0 -113 2 -135 15
-135 8 0 15 -7 15 -15 0 -11 -12 -15 -50 -15 -38 0 -50 4 -50 15 0 8 7 15 15
15 12 0 15 19 15 115 0 96 -3 115 -15 115 -8 0 -15 9 -15 20 0 16 7 20 35 20
l35 0 0 -135z m370 70 l0 -65 45 0 44 0 3 62 c2 50 6 63 21 66 16 3 17 -9 17
-147 0 -144 -1 -151 -20 -151 -18 0 -20 7 -20 65 l0 65 -45 0 -45 0 0 -65 c0
-58 -2 -65 -20 -65 -19 0 -20 7 -20 143 0 79 3 147 7 150 3 4 12 7 20 7 9 0
13 -17 13 -65z m720 -70 c0 -113 2 -135 15 -135 8 0 15 -7 15 -15 0 -11 -12
-15 -50 -15 -38 0 -50 4 -50 15 0 8 7 15 15 15 12 0 15 19 15 115 0 96 -3 115
-15 115 -8 0 -15 9 -15 20 0 16 7 20 35 20 l35 0 0 -135z m370 88 c0 -37 3
-44 12 -35 20 20 60 13 90 -15 27 -25 28 -31 28 -115 0 -81 -2 -88 -20 -88
-18 0 -20 7 -20 83 0 83 -9 107 -39 107 -8 0 -23 -7 -33 -17 -14 -13 -18 -31
-18 -95 0 -71 -2 -78 -20 -78 -19 0 -20 7 -20 143 0 79 3 147 7 150 20 20 33
4 33 -40z m535 17 c22 -23 26 -33 17 -42 -9 -9 -17 -7 -35 10 -28 26 -44 28
-69 5 -14 -13 -18 -31 -18 -91 0 -64 3 -79 22 -99 26 -28 40 -29 63 -3 20 22
45 27 45 8 0 -6 -10 -22 -22 -35 -30 -32 -74 -30 -110 4 -27 26 -28 31 -28
122 0 89 2 97 27 123 35 37 71 36 108 -2z m1273 7 c2 -12 -3 -17 -17 -17 -12
0 -21 6 -21 13 0 31 32 34 38 4z m632 -20 c0 -50 -36 -97 -58 -75 -9 9 -8 16
6 31 12 15 14 21 5 24 -14 5 -18 45 -6 56 3 4 17 7 30 7 21 0 23 -5 23 -43z
m78 3 c2 -27 -3 -41 -22 -59 -30 -29 -56 -19 -29 11 13 15 15 22 6 25 -7 3
-13 18 -13 34 0 27 3 30 28 27 23 -3 27 -8 30 -38z m-6185 23 c4 -3 -1 -15
-10 -26 -13 -15 -15 -21 -5 -24 6 -3 12 -18 12 -34 0 -26 -4 -29 -30 -29 -29
0 -30 2 -30 42 0 54 38 97 63 71z m72 -4 c4 -5 -1 -19 -11 -30 -10 -11 -12
-19 -6 -19 7 0 12 -13 12 -30 0 -25 -4 -30 -25 -30 -23 0 -25 4 -25 42 0 54
36 98 55 67z m3405 -34 c0 -10 11 -15 35 -15 28 0 35 -4 35 -20 0 -16 -7 -20
-35 -20 l-35 0 0 -59 c0 -33 3 -66 6 -75 7 -18 35 -21 51 -5 6 6 16 8 23 4 8
-5 5 -14 -11 -31 -28 -30 -46 -30 -76 -2 -20 19 -23 31 -23 95 0 58 -3 73 -15
73 -8 0 -15 9 -15 20 0 11 7 20 15 20 8 0 15 7 15 15 0 8 7 15 15 15 8 0 15
-7 15 -15z m-2538 -42 c21 -20 28 -36 28 -65 l0 -38 -65 0 c-54 0 -65 -3 -65
-17 0 -20 28 -53 45 -53 6 0 22 11 35 25 18 19 26 22 37 13 11 -9 9 -16 -13
-40 -37 -38 -81 -38 -117 0 -23 24 -27 37 -27 87 0 50 4 63 27 87 35 37 77 37
115 1z m111 15 c4 -10 7 -10 18 0 34 32 121 -13 105 -54 -6 -15 -9 -15 -29 5
-29 27 -45 27 -74 -1 -20 -19 -23 -31 -23 -95 0 -58 -3 -73 -15 -73 -12 0 -15
19 -15 115 0 93 3 115 14 115 8 0 16 -6 19 -12z m321 -16 c22 -24 24 -31 13
-40 -11 -9 -18 -7 -32 8 -20 22 -55 26 -73 8 -15 -15 13 -48 42 -48 21 0 76
-46 76 -65 0 -23 -56 -65 -86 -65 -37 0 -84 44 -67 61 8 8 19 5 41 -11 24 -18
33 -20 51 -11 37 20 19 61 -28 61 -28 0 -71 36 -71 59 0 25 51 71 80 71 16 0
37 -11 54 -28z m218 1 c25 -23 28 -34 28 -87 0 -51 -4 -64 -27 -88 -18 -19
-37 -28 -58 -28 -21 0 -40 9 -58 28 -23 24 -27 37 -27 87 0 50 4 63 27 87 35
37 77 37 115 1z m118 15 c0 -9 3 -9 12 0 21 21 63 14 91 -16 25 -26 27 -34 27
-115 0 -80 -2 -87 -20 -87 -18 0 -20 7 -20 83 0 83 -9 107 -39 107 -8 0 -23
-7 -33 -17 -14 -13 -18 -31 -18 -95 0 -71 -2 -78 -20 -78 -19 0 -20 7 -20 115
0 108 1 115 20 115 11 0 20 -5 20 -12z m322 -15 c27 -25 28 -31 28 -115 0 -81
-2 -88 -20 -88 -11 0 -20 5 -20 12 0 9 -3 9 -12 0 -21 -21 -63 -14 -91 16 -34
36 -34 52 1 85 20 19 39 27 65 27 38 0 48 15 25 38 -18 18 -53 14 -73 -8 -14
-15 -21 -17 -32 -8 -11 9 -9 16 13 40 36 37 78 37 116 1z m870 0 c21 -20 28
-36 28 -65 l0 -38 -65 0 c-54 0 -65 -3 -65 -17 0 -20 28 -53 45 -53 6 0 22 11
35 25 18 19 26 22 37 13 11 -9 9 -16 -13 -40 -37 -38 -81 -38 -117 0 -23 24
-27 37 -27 87 0 50 4 63 27 87 35 37 77 37 115 1z m222 -4 c23 -28 26 -39 26
-115 0 -77 -2 -84 -20 -84 -11 0 -20 5 -20 12 0 9 -3 9 -12 0 -21 -21 -63 -14
-91 16 -34 36 -34 52 1 85 20 19 39 27 65 27 38 0 48 15 25 38 -18 18 -53 14
-73 -8 -14 -15 -21 -17 -32 -8 -11 9 -9 16 13 40 39 39 83 38 118 -3z m1298 4
c25 -24 28 -34 28 -88 0 -54 -3 -64 -28 -88 -34 -33 -77 -35 -109 -5 -19 18
-23 31 -23 87 0 57 3 68 27 93 34 35 69 36 105 1z m118 16 c0 -8 5 -8 15 1 11
9 19 10 28 1 10 -8 17 -7 25 1 9 9 18 6 37 -12 23 -22 25 -30 25 -117 0 -76
-3 -93 -15 -93 -12 0 -15 15 -15 79 0 84 -6 115 -21 105 -5 -3 -9 -45 -9 -95
0 -82 -1 -89 -20 -89 -19 0 -20 7 -20 96 0 85 -2 95 -15 84 -11 -9 -15 -34
-15 -96 0 -68 -3 -84 -15 -84 -12 0 -15 19 -15 115 0 96 3 115 15 115 8 0 15
-5 15 -11z m220 -1 c0 -9 3 -9 12 0 21 21 63 14 91 -16 23 -24 27 -37 27 -88
0 -54 -3 -63 -29 -88 -24 -23 -36 -28 -65 -24 -36 4 -36 4 -36 -35 0 -31 -3
-38 -17 -35 -16 3 -18 20 -21 151 -2 142 -2 147 18 147 11 0 20 -5 20 -12z
m322 -15 c27 -25 28 -31 28 -115 0 -81 -2 -88 -20 -88 -11 0 -20 5 -20 12 0 9
-3 9 -12 0 -21 -21 -63 -14 -91 16 -34 36 -34 52 1 85 20 19 39 27 65 27 38 0
48 15 25 38 -18 18 -53 14 -73 -8 -14 -15 -21 -17 -32 -8 -11 9 -9 16 13 40
36 37 78 37 116 1z m111 15 c4 -10 7 -10 18 0 24 22 65 14 93 -19 23 -28 26
-39 26 -115 0 -77 -2 -84 -20 -84 -18 0 -20 7 -20 83 0 83 -9 107 -39 107 -8
0 -25 -10 -38 -22 -20 -19 -23 -31 -23 -95 0 -58 -3 -73 -15 -73 -12 0 -15 19
-15 115 0 93 3 115 14 115 8 0 16 -6 19 -12z m287 -88 c0 -82 3 -100 15 -100
8 0 15 -7 15 -15 0 -11 -12 -15 -50 -15 -38 0 -50 4 -50 15 0 8 7 15 15 15 12
0 15 16 15 80 0 64 -3 80 -15 80 -8 0 -15 9 -15 20 0 16 7 20 35 20 l35 0 0
-100z m252 73 c25 -23 28 -34 28 -87 0 -51 -4 -64 -27 -88 -18 -19 -37 -28
-58 -28 -21 0 -40 9 -58 28 -23 24 -27 37 -27 87 0 50 4 63 27 87 35 37 77 37
115 1z m118 15 c0 -9 3 -9 12 0 21 21 63 14 91 -16 25 -26 27 -34 27 -115 0
-80 -2 -87 -20 -87 -18 0 -20 7 -20 83 0 83 -9 107 -39 107 -8 0 -23 -7 -33
-17 -14 -13 -18 -31 -18 -95 0 -71 -2 -78 -20 -78 -19 0 -20 7 -20 115 0 108
1 115 20 115 11 0 20 -5 20 -12z m-6690 -835 l0 -88 23 39 c12 22 28 41 35 44
7 2 4 -11 -9 -33 l-21 -36 21 -55 c24 -63 24 -64 12 -64 -4 0 -16 20 -25 45
-21 53 -36 50 -36 -6 0 -21 -4 -39 -10 -39 -6 0 -10 53 -10 140 0 87 4 140 10
140 6 0 10 -36 10 -87z m350 77 c0 -5 -7 -10 -15 -10 -23 0 -21 -70 3 -71 16
-1 16 -2 0 -6 -16 -4 -18 -17 -18 -94 0 -53 -4 -89 -10 -89 -6 0 -10 37 -10
90 0 65 -3 90 -12 91 -10 0 -10 2 0 6 6 2 12 19 12 37 0 18 5 37 12 44 15 15
38 16 38 2z m1400 -40 c0 -46 2 -50 18 -41 14 7 25 6 40 -5 20 -13 22 -24 22
-100 0 -49 -4 -84 -10 -84 -6 0 -10 35 -10 85 0 70 -3 87 -16 92 -29 11 -44
-25 -44 -104 0 -42 -4 -73 -10 -73 -6 0 -10 53 -10 140 0 87 4 140 10 140 6 0
10 -23 10 -50z m1530 -89 l0 -139 -42 2 c-41 1 -44 3 -57 41 -26 75 13 170 59
145 19 -10 20 -7 20 40 0 27 5 50 10 50 6 0 10 -53 10 -139z m510 89 c0 -47 1
-50 19 -40 50 26 89 -78 58 -153 -15 -34 -19 -37 -56 -35 l-41 1 0 139 c0 85
4 138 10 138 6 0 10 -23 10 -50z m1110 -90 c0 -87 -4 -140 -10 -140 -5 0 -10
5 -10 12 0 9 -3 9 -12 0 -18 -18 -56 -14 -68 7 -13 25 -13 126 0 150 14 28 40
34 61 15 18 -16 19 -15 19 39 0 32 5 57 10 57 6 0 10 -53 10 -140z m590 90 c0
-48 1 -50 20 -40 28 15 56 -2 64 -41 10 -49 7 -149 -4 -149 -6 0 -10 30 -10
71 0 75 -11 109 -36 109 -21 0 -34 -42 -34 -116 0 -36 -4 -64 -10 -64 -6 0
-10 53 -10 140 0 87 4 140 10 140 6 0 10 -23 10 -50z m950 -90 c0 -87 -4 -140
-10 -140 -5 0 -10 5 -10 12 0 9 -3 9 -12 0 -36 -36 -78 7 -78 80 0 82 34 126
71 92 18 -16 19 -15 19 39 0 32 5 57 10 57 6 0 10 -53 10 -140z m280 130 c0
-5 -7 -10 -15 -10 -23 0 -21 -70 3 -71 16 -1 16 -2 0 -6 -16 -4 -18 -17 -18
-94 0 -53 -4 -89 -10 -89 -6 0 -10 37 -10 90 0 65 -3 90 -12 91 -10 0 -10 2 0
6 6 2 12 19 12 37 0 18 5 37 12 44 15 15 38 16 38 2z m-7173 -33 c4 -6 -4 -8
-21 -5 -16 3 -33 0 -41 -9 -18 -17 -8 -45 35 -104 32 -44 37 -68 20 -100 -12
-21 -74 -27 -86 -7 -5 8 2 9 23 5 62 -12 69 30 18 106 -40 59 -45 99 -14 120
21 15 55 12 66 -6z m1743 3 c0 -5 -4 -10 -9 -10 -6 0 -13 5 -16 10 -3 6 1 10
9 10 9 0 16 -4 16 -10z m2050 0 c0 -5 -4 -10 -10 -10 -5 0 -10 5 -10 10 0 6 5
10 10 10 6 0 10 -4 10 -10z m330 -8 c0 -10 -6 -26 -12 -35 -11 -15 -13 -13
-11 15 2 41 1 38 13 38 6 0 10 -8 10 -18z m-3264 -38 c13 -10 13 -12 -1 -18
-11 -4 -15 -21 -15 -73 0 -71 5 -86 30 -96 9 -3 4 -6 -12 -6 l-28 -1 0 83 c0
50 -5 88 -12 95 -9 9 -8 18 3 38 12 24 14 25 17 8 2 -10 10 -24 18 -30z m1280
0 c13 -10 13 -12 -1 -18 -11 -4 -15 -21 -15 -73 0 -71 5 -86 30 -96 9 -3 4 -6
-12 -6 l-28 -1 0 83 c0 50 -5 88 -12 95 -9 9 -8 18 3 38 12 24 14 25 17 8 2
-10 10 -24 18 -30z m388 19 c0 -15 -6 -29 -12 -31 -13 -4 -16 17 -6 42 10 25
20 19 18 -11z m172 -19 c13 -10 13 -12 -1 -18 -11 -4 -15 -21 -15 -73 0 -71 5
-86 30 -96 9 -3 4 -6 -12 -6 l-28 -1 0 83 c0 50 -5 88 -12 95 -9 9 -8 18 3 38
12 24 14 25 17 8 2 -10 10 -24 18 -30z m312 -5 c15 -1 15 -2 0 -6 -15 -4 -18
-17 -18 -83 0 -64 3 -81 18 -90 15 -9 14 -10 -8 -8 -24 3 -25 6 -28 88 -2 46
-8 87 -13 91 -7 4 -5 16 7 35 l19 28 3 -27 c2 -17 10 -27 20 -28z m1520 0 c15
-1 15 -2 0 -6 -15 -4 -18 -17 -18 -83 0 -65 3 -81 18 -89 15 -9 15 -10 -4 -11
-29 0 -34 17 -34 106 0 44 -4 74 -10 74 -6 0 -3 15 7 33 l18 32 3 -27 c2 -18
10 -28 20 -29z m78 5 c13 -10 13 -12 -1 -18 -11 -4 -15 -21 -15 -73 0 -71 5
-86 30 -96 9 -3 4 -6 -12 -6 l-28 -1 0 83 c0 50 -5 88 -12 95 -9 9 -8 18 3 38
12 24 14 25 17 8 2 -10 10 -24 18 -30z m1282 -5 c15 -1 15 -2 0 -6 -15 -4 -18
-17 -18 -83 0 -64 3 -81 18 -90 15 -9 14 -10 -8 -8 -24 3 -25 6 -28 88 -2 46
-8 87 -13 91 -7 4 -5 16 7 35 l19 28 3 -27 c2 -17 10 -27 20 -28z m2740 0 c15
-1 15 -2 0 -6 -15 -4 -18 -17 -18 -83 0 -64 3 -81 18 -90 15 -9 14 -10 -8 -8
-24 3 -25 6 -28 88 -2 46 -8 87 -13 91 -7 4 -5 16 7 35 l19 28 3 -27 c2 -17
10 -27 20 -28z m-8513 -9 c23 -26 31 -115 13 -150 -14 -26 -68 -42 -68 -20 0
7 6 10 13 7 25 -9 40 10 44 59 5 56 -9 104 -32 104 -22 0 -37 -46 -34 -105 4
-88 -1 -155 -11 -155 -6 0 -10 52 -10 136 0 87 4 133 10 129 5 -3 18 -1 27 4
25 14 27 14 48 -9z m125 0 c12 -12 20 -33 20 -55 0 -34 -1 -35 -40 -35 -33 0
-40 -3 -40 -20 0 -29 34 -60 59 -53 12 3 21 1 21 -6 0 -17 -56 -13 -74 5 -33
33 -33 128 0 165 22 24 29 24 54 -1z m122 3 c11 -9 18 -11 18 -5 0 7 5 12 10
12 6 0 10 -38 10 -95 0 -57 -4 -95 -10 -95 -5 0 -10 5 -10 12 0 9 -3 9 -12 0
-18 -18 -56 -14 -68 7 -5 11 -10 47 -10 80 0 48 4 65 20 81 24 24 28 25 52 3z
m331 3 c15 0 17 -12 17 -93 0 -55 -4 -93 -10 -93 -5 0 -10 5 -10 12 0 9 -3 9
-12 0 -36 -36 -78 7 -78 81 0 69 27 114 60 100 8 -3 23 -6 33 -7z m291 -14 c2
-4 7 -24 11 -45 l7 -37 -47 0 c-46 0 -47 0 -41 -27 9 -35 31 -52 56 -46 11 3
20 0 20 -6 0 -18 -55 -13 -73 7 -51 56 -15 203 43 172 10 -5 21 -13 24 -18z
m80 -7 c-21 -21 -24 -33 -24 -95 0 -40 -4 -70 -10 -70 -6 0 -10 38 -10 95 0
57 4 95 10 95 6 0 10 -5 10 -11 0 -6 7 -3 16 5 8 9 19 14 24 11 5 -3 -2 -16
-16 -30z m210 -38 c7 -34 5 -56 -5 -84 -13 -33 -19 -38 -47 -38 -31 0 -32 -1
-32 -42 0 -24 -4 -43 -10 -43 -6 0 -10 52 -9 138 0 75 3 131 6 125 4 -10 9
-10 26 2 32 22 60 -1 71 -58z m70 38 c-21 -21 -24 -33 -24 -95 0 -40 -4 -70
-10 -70 -6 0 -10 38 -10 95 0 57 4 95 10 95 6 0 10 -5 10 -11 0 -6 7 -3 16 5
8 9 19 14 24 11 5 -3 -2 -16 -16 -30z m130 7 c2 -4 7 -24 11 -45 l7 -37 -47 0
c-46 0 -47 0 -41 -27 9 -35 31 -52 56 -46 11 3 20 0 20 -6 0 -18 -55 -13 -73
7 -51 56 -15 203 43 172 10 -5 21 -13 24 -18z m90 22 c22 -8 20 -23 -2 -17
-10 2 -24 -2 -30 -10 -9 -11 -5 -24 23 -63 37 -52 42 -73 23 -92 -15 -15 -65
-16 -74 -1 -4 7 3 10 17 9 13 -1 30 -2 37 -1 22 2 13 39 -18 74 -34 39 -39 81
-12 96 21 13 17 12 36 5z m100 0 c22 -8 20 -23 -2 -17 -10 2 -24 -2 -30 -10
-9 -11 -5 -24 23 -63 37 -52 42 -73 23 -92 -15 -15 -65 -16 -74 -1 -4 7 3 10
17 9 13 -1 30 -2 37 -1 22 2 13 39 -18 74 -34 39 -39 81 -12 96 21 13 17 12
36 5z m204 -108 c2 -55 -1 -86 -8 -86 -6 0 -10 33 -10 85 0 70 -3 87 -16 92
-29 11 -44 -25 -44 -104 0 -42 -4 -73 -10 -73 -6 0 -10 39 -10 96 0 76 3 95
13 91 8 -3 20 -1 28 4 9 5 22 3 34 -5 17 -11 20 -26 23 -100z m125 100 c15 0
17 -13 17 -114 0 -136 -6 -152 -60 -152 -23 0 -40 5 -40 11 0 7 9 9 22 6 36
-10 58 9 58 50 0 29 -3 34 -12 25 -36 -36 -78 7 -78 81 0 69 27 114 60 100 8
-3 23 -6 33 -7z m383 6 c18 -11 34 -48 34 -76 0 -24 -4 -26 -40 -26 -45 0 -52
-18 -24 -58 12 -17 21 -21 41 -16 18 5 24 3 19 -5 -10 -16 -61 -14 -76 4 -15
18 -25 95 -16 129 6 24 31 56 44 56 4 0 12 -4 18 -8z m238 2 c26 -10 18 -23
-11 -21 -40 3 -41 -26 -3 -69 23 -27 30 -44 28 -67 -3 -29 -7 -32 -40 -35 -24
-2 -38 1 -38 9 0 7 9 9 22 6 21 -6 48 7 48 23 0 4 -16 27 -35 51 -41 51 -43
72 -13 93 26 19 22 18 42 10z m198 -11 c11 -9 18 -11 18 -5 0 7 5 12 10 12 6
0 10 -38 10 -95 0 -57 -4 -95 -10 -95 -5 0 -10 5 -10 12 0 9 -3 9 -12 0 -18
-18 -56 -14 -68 7 -5 11 -10 47 -10 80 0 48 4 65 20 81 24 24 28 25 52 3z
m111 -10 c-21 -14 -23 -24 -23 -94 0 -46 -4 -79 -10 -79 -6 0 -10 39 -10 96 0
60 4 93 10 89 5 -3 18 -2 27 4 27 15 31 1 6 -16z m231 4 c-30 -16 -34 -28 -34
-104 0 -42 -4 -73 -10 -73 -6 0 -10 39 -10 96 0 76 3 95 13 91 8 -3 20 -1 27
3 8 5 18 6 23 3 5 -3 1 -10 -9 -16z m106 3 c12 -12 20 -33 20 -55 0 -34 -1
-35 -40 -35 -33 0 -40 -3 -40 -20 0 -29 34 -60 59 -53 12 3 21 1 21 -6 0 -17
-56 -13 -74 5 -33 33 -33 128 0 165 22 24 29 24 54 -1z m114 14 c23 -9 20 -23
-4 -17 -16 4 -23 -3 -36 -32 -25 -61 2 -144 41 -129 8 4 15 1 15 -5 0 -6 -11
-11 -25 -11 -57 0 -82 125 -34 176 26 27 22 26 43 18z m115 -13 c47 -47 33
-173 -21 -179 -37 -4 -58 29 -58 94 0 37 6 59 21 78 24 31 33 32 58 7z m95
-16 c-21 -21 -24 -33 -24 -95 0 -40 -4 -70 -10 -70 -6 0 -10 38 -10 95 0 57 4
95 10 95 6 0 10 -5 10 -11 0 -6 7 -3 16 5 8 9 19 14 24 11 5 -3 -2 -16 -16
-30z m321 21 c15 -11 19 -30 23 -100 3 -60 1 -86 -7 -86 -7 0 -11 26 -11 73 0
79 -15 115 -44 104 -9 -4 -16 -2 -16 2 0 8 15 18 31 20 3 1 14 -5 24 -13z
m122 -1 c16 -12 22 -12 26 -2 3 6 6 -44 6 -113 1 -86 -3 -130 -11 -138 -15
-15 -88 -16 -88 -1 0 6 11 8 28 4 18 -4 33 -1 39 7 13 16 15 182 3 214 -12 31
-38 31 -50 -2 -23 -60 0 -151 35 -138 8 4 15 1 15 -6 0 -22 -54 -6 -68 20 -18
35 -10 124 13 150 22 24 24 24 52 5z m702 -11 c15 -19 21 -41 21 -78 0 -65
-21 -98 -58 -94 -54 6 -68 132 -21 179 25 25 34 24 58 -7z m149 -88 c2 -55 -1
-86 -8 -86 -6 0 -10 33 -10 85 0 67 -3 87 -15 91 -32 13 -45 -15 -45 -97 0
-46 -4 -79 -10 -79 -6 0 -10 39 -10 96 0 60 4 93 10 89 5 -3 18 -2 27 4 13 7
24 6 38 -3 17 -11 20 -26 23 -100z m185 97 c3 6 6 -31 6 -84 l1 -97 -42 2
c-41 1 -44 3 -57 41 -17 50 -8 108 20 136 19 19 22 19 44 5 18 -12 25 -12 28
-3z m127 -3 c17 -17 20 -33 20 -100 0 -47 -4 -80 -10 -80 -6 0 -10 33 -10 79
0 58 -4 82 -15 91 -12 10 -18 10 -30 0 -11 -9 -15 -33 -15 -91 0 -46 -4 -79
-10 -79 -6 0 -10 39 -10 98 0 54 4 91 9 84 6 -10 10 -10 21 3 17 20 26 19 50
-5z m307 4 c2 -6 -7 -10 -19 -10 -34 1 -34 -29 1 -71 33 -39 39 -71 19 -91
-15 -15 -68 -16 -68 -1 0 5 8 9 18 8 52 -5 57 26 12 78 -34 38 -39 77 -12 92
20 13 44 10 49 -5z m113 -4 c12 -12 20 -33 20 -55 0 -34 -1 -35 -40 -35 -33 0
-40 -3 -40 -20 0 -29 34 -60 59 -53 12 3 21 1 21 -6 0 -17 -56 -13 -74 5 -33
33 -33 128 0 165 22 24 29 24 54 -1z m124 1 c9 -10 20 -35 23 -55 l6 -36 -46
0 -46 0 10 -32 c10 -36 27 -50 52 -42 9 3 17 1 17 -5 0 -21 -59 -12 -74 12
-27 41 -25 128 4 157 25 25 32 25 54 1z m396 -1 c12 -12 20 -33 20 -55 0 -34
-1 -35 -40 -35 -33 0 -40 -3 -40 -20 0 -29 34 -60 59 -53 12 3 21 1 21 -6 0
-17 -56 -13 -74 5 -33 33 -33 128 0 165 22 24 29 24 54 -1z m153 -7 c-21 -14
-23 -24 -23 -94 0 -46 -4 -79 -10 -79 -6 0 -10 39 -10 96 0 60 4 93 10 89 5
-3 18 -2 27 4 27 15 31 1 6 -16z m103 19 c18 -11 34 -48 34 -76 0 -24 -4 -26
-40 -26 -45 0 -52 -18 -24 -58 12 -17 21 -21 41 -16 18 5 24 3 19 -5 -10 -16
-61 -14 -76 4 -15 18 -25 95 -16 129 6 24 31 56 44 56 4 0 12 -4 18 -8z m174
-7 c16 20 26 19 50 -5 17 -17 20 -33 20 -100 0 -47 -4 -80 -10 -80 -6 0 -10
33 -10 79 0 58 -4 82 -15 91 -12 10 -18 10 -30 0 -11 -9 -15 -33 -15 -91 0
-46 -4 -79 -10 -79 -6 0 -10 33 -10 78 0 88 -10 113 -37 96 -14 -9 -19 -27
-21 -93 -4 -114 -22 -102 -22 15 0 60 4 93 10 89 5 -3 18 -2 27 4 13 7 24 6
40 -4 18 -12 23 -12 33 0z m184 -13 c2 -4 7 -24 11 -45 l7 -37 -47 0 c-46 0
-47 0 -41 -27 9 -35 31 -52 56 -46 11 3 20 0 20 -6 0 -18 -55 -13 -73 7 -51
56 -15 203 43 172 10 -5 21 -13 24 -18z m525 2 c15 -19 21 -41 21 -78 0 -65
-21 -98 -58 -94 -54 6 -68 132 -21 179 25 25 34 24 58 -7z m94 -1 c-21 -14
-23 -24 -23 -94 0 -46 -4 -79 -10 -79 -6 0 -10 39 -10 96 0 60 4 93 10 89 5
-3 18 -2 27 4 27 15 31 1 6 -16z m327 -19 c14 -35 12 -94 -3 -124 -9 -18 -21
-25 -42 -25 -40 0 -57 34 -52 104 3 41 9 59 26 73 28 22 57 10 71 -28z m213
19 c-21 -14 -23 -24 -23 -94 0 -46 -4 -79 -10 -79 -6 0 -10 39 -10 96 0 60 4
93 10 89 5 -3 18 -2 27 4 27 15 31 1 6 -16z m151 21 c25 -10 19 -22 -9 -16
-17 3 -27 -1 -31 -12 -6 -16 3 -32 48 -88 18 -23 20 -31 10 -53 -9 -18 -19
-25 -41 -25 -16 0 -33 5 -36 11 -4 6 3 9 20 7 17 -2 31 3 38 14 9 13 4 26 -26
64 -43 55 -45 67 -15 88 26 19 22 18 42 10z m256 -9 c10 -12 15 -12 34 0 19
13 25 13 44 -1 20 -14 22 -24 22 -100 0 -49 -4 -84 -10 -84 -6 0 -10 35 -10
85 0 70 -3 87 -16 92 -29 11 -44 -25 -44 -104 0 -103 -19 -91 -22 15 -3 83 -4
87 -25 86 -25 -1 -31 11 -10 19 20 9 24 8 37 -8z m220 -5 c25 -25 30 -122 9
-162 -11 -21 -49 -24 -67 -6 -9 9 -12 0 -12 -40 0 -29 -4 -52 -10 -52 -6 0
-10 52 -10 135 0 83 4 135 10 135 6 0 10 -5 10 -12 0 -8 6 -6 17 5 22 22 29
21 53 -3z m209 1 c47 -47 33 -173 -21 -179 -37 -4 -58 29 -58 94 0 37 6 59 21
78 24 31 33 32 58 7z m131 4 c10 -12 15 -12 34 0 19 13 25 13 44 -1 20 -14 22
-24 22 -100 0 -49 -4 -84 -10 -84 -6 0 -10 35 -10 85 0 70 -3 87 -16 92 -29
11 -44 -25 -44 -104 0 -103 -19 -91 -22 15 -3 83 -4 87 -25 86 -25 -1 -31 11
-10 19 20 9 24 8 37 -8z m-7130 -90 c0 -57 -4 -95 -10 -95 -6 0 -10 38 -10 95
0 57 4 95 10 95 6 0 10 -38 10 -95z m2050 0 c0 -57 -4 -95 -10 -95 -6 0 -10
38 -10 95 0 57 4 95 10 95 6 0 10 -38 10 -95z m52 83 c8 -23 -4 -178 -13 -178
-5 0 -9 43 -9 95 0 52 4 95 9 95 5 0 11 -6 13 -12z m528 -61 c0 -84 16 -121
44 -98 12 10 16 32 16 92 0 46 4 79 10 79 6 0 10 -38 10 -93 l0 -94 -40 -1
c-35 -2 -42 2 -50 24 -13 34 -13 164 0 164 6 0 10 -31 10 -73z m2570 -6 c0
-58 4 -82 15 -91 12 -10 18 -10 30 0 11 9 15 33 15 91 0 46 4 79 10 79 15 0
13 -243 -2 -258 -15 -15 -88 -16 -88 -1 0 7 10 9 24 5 39 -10 56 2 56 39 0 30
-2 32 -27 27 -40 -8 -53 19 -53 110 0 45 4 78 10 78 6 0 10 -33 10 -79z m540
0 c0 -58 4 -82 15 -91 12 -10 18 -10 30 0 11 9 15 33 15 91 0 46 4 79 10 79
15 0 13 -243 -2 -258 -15 -15 -88 -16 -88 -1 0 7 10 9 24 5 39 -10 56 2 56 39
0 30 -2 32 -27 27 -40 -8 -53 19 -53 110 0 45 4 78 10 78 6 0 10 -33 10 -79z
m260 6 c0 -84 16 -121 44 -98 12 10 16 32 16 92 0 46 4 79 10 79 6 0 10 -38
10 -93 l0 -94 -40 -1 c-35 -2 -42 2 -50 24 -13 34 -13 164 0 164 6 0 10 -31
10 -73z m380 -6 c0 -58 4 -82 15 -91 12 -10 18 -10 30 0 11 9 15 33 15 91 0
46 4 79 10 79 15 0 13 -243 -2 -258 -15 -15 -88 -16 -88 -1 0 7 10 9 24 5 39
-10 56 2 56 39 0 30 -2 32 -27 27 -40 -8 -53 19 -53 110 0 45 4 78 10 78 6 0
10 -33 10 -79z m132 67 c8 -23 -4 -178 -13 -178 -5 0 -9 43 -9 95 0 52 4 95 9
95 5 0 11 -6 13 -12z m560 0 c8 -23 -4 -178 -13 -178 -5 0 -9 43 -9 95 0 52 4
95 9 95 5 0 11 -6 13 -12z m-9715 -5840 c-3 -8 -6 -5 -6 6 -1 11 2 17 5 13 3
-3 4 -12 1 -19z m-13 -122 c-10 -31 -19 -54 -22 -52 -2 2 4 29 14 60 10 31 19
54 22 52 2 -2 -4 -29 -14 -60z m-44 -123 c-11 -17 -11 -17 -6 0 3 10 6 24 7
30 0 9 2 9 5 0 3 -7 0 -20 -6 -30z m-72 -163 c-7 -10 -14 -17 -17 -15 -4 4 18
35 25 35 2 0 -1 -9 -8 -20z m-188 -140 c-8 -5 -19 -10 -25 -10 -5 0 -3 5 5 10
8 5 20 10 25 10 6 0 3 -5 -5 -10z m-76 -30 c-5 -5 -25 -12 -44 -15 -35 -5 -35
-5 5 9 51 18 51 18 39 6z"/>
<path d="M8751 9360 c-99 -519 -121 -637 -121 -647 0 -10 32 -13 125 -13 113
0 125 2 124 18 0 19 -127 650 -128 642z"/>
<path d="M6712 7915 c-12 -25 -22 -50 -22 -55 0 -6 23 -10 50 -10 28 0 50 3
50 6 0 13 -43 104 -49 104 -4 0 -17 -20 -29 -45z"/>
<path d="M7130 7935 c0 -44 1 -45 33 -45 38 0 57 15 57 45 0 30 -19 45 -57 45
-32 0 -33 -1 -33 -45z"/>
<path d="M7362 7898 c-7 -7 -12 -20 -12 -30 0 -15 8 -18 45 -18 37 0 45 3 45
18 0 24 -19 42 -45 42 -12 0 -26 -5 -33 -12z"/>
<path d="M8012 7898 c-20 -20 -15 -112 6 -131 24 -22 35 -21 55 1 20 22 23
112 5 130 -7 7 -21 12 -33 12 -12 0 -26 -5 -33 -12z"/>
<path d="M8455 7810 c-18 -20 -18 -21 3 -42 l22 -22 25 24 c14 13 25 32 25 42
0 25 -51 24 -75 -2z"/>
<path d="M9322 7898 c-7 -7 -12 -20 -12 -30 0 -15 8 -18 45 -18 37 0 45 3 45
18 0 24 -19 42 -45 42 -12 0 -26 -5 -33 -12z"/>
<path d="M9542 7818 c-17 -17 -15 -32 8 -53 20 -18 21 -18 45 5 37 34 33 60
-8 60 -18 0 -38 -5 -45 -12z"/>
<path d="M10842 7898 c-7 -7 -12 -36 -12 -64 0 -43 4 -56 22 -68 29 -20 34
-20 58 4 27 27 28 100 2 123 -22 20 -53 22 -70 5z"/>
<path d="M11287 7892 c-24 -26 -23 -104 1 -125 24 -22 35 -21 55 1 20 22 23
112 5 130 -17 17 -42 15 -61 -6z"/>
<path d="M11505 7810 c-18 -20 -18 -21 3 -42 l22 -22 25 24 c14 13 25 32 25
42 0 25 -51 24 -75 -2z"/>
<path d="M12152 7898 c-20 -20 -15 -112 6 -131 24 -22 35 -21 55 1 20 22 23
112 5 130 -7 7 -21 12 -33 12 -12 0 -26 -5 -33 -12z"/>
<path d="M8879 7073 c-21 -25 -18 -118 4 -140 18 -17 19 -17 33 1 25 35 14
156 -15 156 -5 0 -15 -7 -22 -17z"/>
<path d="M9471 7071 c-16 -29 -13 -114 3 -137 14 -18 16 -18 32 -3 9 10 18 37
21 60 6 68 -33 124 -56 80z"/>
<path d="M10490 7075 c-19 -23 -17 -123 4 -143 15 -15 17 -15 33 1 32 32 18
157 -17 157 -4 0 -13 -7 -20 -15z"/>
<path d="M12030 7071 c-15 -29 -12 -114 4 -137 14 -18 16 -18 32 -3 24 25 30
103 10 134 -20 30 -32 32 -46 6z"/>
<path d="M5410 7071 c-18 -35 -12 -51 20 -51 25 0 30 4 30 23 0 23 -16 47 -32
47 -4 0 -12 -9 -18 -19z"/>
<path d="M5540 7075 c-19 -23 -17 -123 4 -143 15 -15 17 -15 33 1 32 32 18
157 -17 157 -4 0 -13 -7 -20 -15z"/>
<path d="M5850 7071 c-15 -29 -12 -114 4 -137 14 -18 16 -18 32 -3 24 25 30
103 10 134 -20 30 -32 32 -46 6z"/>
<path d="M6146 7068 c-25 -35 -20 -48 19 -48 38 0 41 6 23 45 -14 31 -22 31
-42 3z"/>
<path d="M6421 7071 c-16 -29 -13 -114 3 -137 14 -18 16 -18 32 -3 9 10 18 37
21 60 6 68 -33 124 -56 80z"/>
<path d="M6636 7068 c-25 -35 -20 -48 19 -48 38 0 41 6 23 45 -14 31 -22 31
-42 3z"/>
<path d="M7150 7071 c-15 -29 -12 -114 4 -137 14 -18 16 -18 32 -3 24 25 30
103 10 134 -20 30 -32 32 -46 6z"/>
<path d="M7560 7071 c-18 -35 -12 -51 20 -51 21 0 30 5 30 16 0 21 -18 54 -30
54 -5 0 -14 -9 -20 -19z"/>
<path d="M7990 7075 c-19 -23 -17 -123 4 -143 15 -15 17 -15 33 1 32 32 18
157 -17 157 -4 0 -13 -7 -20 -15z"/>
<path d="M8430 7071 c-18 -35 -12 -51 20 -51 25 0 30 4 30 23 0 23 -16 47 -32
47 -4 0 -12 -9 -18 -19z"/>
<path d="M8661 7071 c-16 -29 -13 -114 3 -137 14 -18 16 -18 32 -3 9 10 18 37
21 60 6 68 -33 124 -56 80z"/>
<path d="M9899 7073 c-21 -25 -18 -118 4 -140 18 -17 19 -17 33 1 25 35 14
156 -15 156 -5 0 -15 -7 -22 -17z"/>
<path d="M10219 7073 c-21 -25 -18 -118 4 -140 18 -17 19 -17 33 1 25 35 14
156 -15 156 -5 0 -15 -7 -22 -17z"/>
<path d="M10780 7071 c-18 -35 -12 -51 20 -51 25 0 30 4 30 23 0 23 -16 47
-32 47 -4 0 -12 -9 -18 -19z"/>
<path d="M10913 7078 c-6 -7 -13 -23 -16 -35 -5 -21 -1 -23 29 -23 37 0 39 5
24 44 -10 29 -22 33 -37 14z"/>
<path d="M11300 7071 c-18 -35 -12 -51 20 -51 25 0 30 4 30 23 0 23 -16 47
-32 47 -4 0 -12 -9 -18 -19z"/>
<path d="M11570 7071 c-18 -35 -12 -51 20 -51 21 0 30 5 30 16 0 21 -18 54
-30 54 -5 0 -14 -9 -20 -19z"/>
<path d="M11906 7068 c-25 -35 -20 -48 19 -48 38 0 41 6 23 45 -14 31 -22 31
-42 3z"/>
<path d="M12439 7073 c-21 -25 -18 -118 4 -140 18 -17 19 -17 33 1 25 35 14
156 -15 156 -5 0 -15 -7 -22 -17z"/>
<path d="M12839 7063 c-13 -35 -6 -122 11 -133 30 -19 50 12 50 77 0 74 -40
111 -61 56z"/>
<path d="M13700 7075 c-19 -23 -17 -123 4 -143 15 -15 17 -15 32 0 31 31 18
158 -16 158 -4 0 -13 -7 -20 -15z"/>
<path d="M13911 7071 c-16 -29 -13 -114 3 -137 14 -18 16 -18 32 -3 9 10 18
37 21 60 6 68 -33 124 -56 80z"/>
<path d="M2423 3598 c-29 -32 -36 -61 -22 -91 13 -30 54 -47 92 -40 20 4 50
-13 149 -83 68 -49 144 -103 170 -119 37 -23 48 -36 48 -56 0 -32 34 -69 63
-69 76 0 114 124 48 159 -31 17 -51 13 -81 -18 l-29 -29 -68 45 c-115 76 -263
185 -263 191 0 4 7 16 15 26 20 27 19 49 -6 80 -27 35 -86 36 -116 4z"/>
<path d="M3201 1964 c0 -11 3 -14 6 -6 3 7 2 16 -1 19 -3 4 -6 -2 -5 -13z"/>
<path d="M3183 395 c0 -27 2 -38 4 -22 2 15 2 37 0 50 -2 12 -4 0 -4 -28z"/>
<path d="M3176 295 c-3 -9 -6 -22 -5 -28 0 -7 5 -1 10 12 5 13 8 26 5 28 -2 2
-6 -3 -10 -12z"/>
<path d="M3161 134 c0 -11 3 -14 6 -6 3 7 2 16 -1 19 -3 4 -6 -2 -5 -13z"/>
<path d="M3152 80 c0 -14 2 -19 5 -12 2 6 2 18 0 25 -3 6 -5 1 -5 -13z"/>
<path d="M3130 53 c0 -4 5 -15 10 -23 8 -13 10 -13 10 2 0 9 -4 20 -10 23 -5
3 -10 3 -10 -2z"/>
</g>
</svg>
